Coordinates
version=1
nRows=40
nColumns=38
inDegrees=no

Units are S.I. units (second, meters, Newtons, ...)
If the header above contains a line with 'inDegrees', this indicates whether rotational values are in degrees (yes) or radians (no).

endheader
time	pelvis_tilt	pelvis_list	pelvis_rotation	pelvis_tx	pelvis_ty	pelvis_tz	hip_flexion_r	hip_adduction_r	hip_rotation_r	knee_angle_r	ankle_angle_r	subtalar_angle_r	mtp_angle_r	hip_flexion_l	hip_adduction_l	hip_rotation_l	knee_angle_l	ankle_angle_l	subtalar_angle_l	mtp_angle_l	lumbar_extension	lumbar_bending	lumbar_rotation	arm_flex_r	arm_add_r	arm_rot_r	elbow_flex_r	pro_sup_r	wrist_flex_r	wrist_dev_r	arm_flex_l	arm_add_l	arm_rot_l	elbow_flex_l	pro_sup_l	wrist_flex_l	wrist_dev_l
65	-3.02048	1.31934	-1.53777	0.855217	-0.562423	1.08845	-0.255345	-0.02051	-0.0518505	0.224537	-0.335289	0	0	-0.305717	-0.0595241	-0.148865	0.300911	-0.177464	0	0	-0.611165	0.00634928	0.170273	0.209239	-0.118131	-1.00187	0.4887	1.5708	0	0	0.242479	-0.171198	0.201356	0.449522	1.5708	0	0
65.01	-3.02212	1.31887	-1.53643	0.854969	-0.562479	1.08844	-0.255611	-0.0204248	-0.0516564	0.224967	-0.335199	0	0	-0.306185	-0.0597732	-0.149809	0.301202	-0.177122	0	0	-0.610707	0.00627132	0.17534	0.207153	-0.117269	-1.01211	0.493442	1.5708	0	0	0.241211	-0.173607	0.209454	0.461266	1.5708	0	0
65.02	-3.02271	1.32078	-1.53627	0.854795	-0.562244	1.08833	-0.253551	-0.0205736	-0.0508827	0.225246	-0.335117	0	0	-0.304314	-0.0595782	-0.150461	0.301285	-0.177093	0	0	-0.604107	0.00452533	0.178835	0.204718	-0.117953	-1.01368	0.491372	1.5708	0	0	0.238617	-0.177743	0.219707	0.47136	1.5708	0	0
65.03	-3.02311	1.3233	-1.53625	0.854592	-0.561934	1.08817	-0.250823	-0.0207941	-0.0501927	0.225702	-0.33479	0	0	-0.301769	-0.0592824	-0.150907	0.301591	-0.176904	0	0	-0.595497	0.00295118	0.181305	0.201561	-0.119028	-1.00834	0.490257	1.5708	0	0	0.234659	-0.182432	0.228797	0.483212	1.5708	0	0
65.04	-3.02324	1.32643	-1.53647	0.854371	-0.561574	1.08795	-0.247394	-0.021218	-0.0496111	0.226382	-0.334273	0	0	-0.298597	-0.0588593	-0.151133	0.302082	-0.176457	0	0	-0.585024	0.00169191	0.18305	0.197572	-0.11983	-0.998926	0.491307	1.5708	0	0	0.229388	-0.187585	0.236476	0.497434	1.5708	0	0
65.05	-3.02308	1.3307	-1.53705	0.854167	-0.561108	1.08764	-0.242677	-0.0217663	-0.048801	0.227249	-0.333733	0	0	-0.294152	-0.0582836	-0.151154	0.302851	-0.17584	0	0	-0.571516	0.000526841	0.184152	0.192759	-0.120448	-0.985739	0.492954	1.5708	0	0	0.222654	-0.192745	0.241088	0.513362	1.5708	0	0
65.06	-3.02257	1.33646	-1.53797	0.853965	-0.560521	1.08724	-0.236414	-0.0224496	-0.0475175	0.227953	-0.333326	0	0	-0.288158	-0.0575272	-0.150696	0.303468	-0.175384	0	0	-0.554861	-0.0009033	0.183928	0.187355	-0.120473	-0.968729	0.495003	1.5708	0	0	0.213442	-0.198779	0.242978	0.532828	1.5708	0	0
65.07	-3.02133	1.34346	-1.53941	0.853713	-0.55985	1.08676	-0.228927	-0.0232561	-0.0462097	0.228759	-0.332745	0	0	-0.281043	-0.0566739	-0.149985	0.303488	-0.175368	0	0	-0.535201	-0.00264317	0.182323	0.181108	-0.119618	-0.947197	0.499733	1.5708	0	0	0.20189	-0.205217	0.241423	0.555561	1.5708	0	0
65.08	-3.0195	1.35119	-1.54116	0.853429	-0.55909	1.08623	-0.220941	-0.0240866	-0.0451757	0.229427	-0.331897	0	0	-0.273005	-0.0557668	-0.149157	0.303965	-0.175199	0	0	-0.513361	-0.00482031	0.179496	0.173939	-0.118068	-0.921062	0.507334	1.5708	0	0	0.187917	-0.212003	0.23547	0.582355	1.5708	0	0
65.09	-3.01726	1.36049	-1.54295	0.853112	-0.558225	1.0856	-0.211502	-0.0249002	-0.0446364	0.229994	-0.330856	0	0	-0.262987	-0.0549455	-0.148267	0.305191	-0.174742	0	0	-0.48889	-0.00701766	0.174985	0.166338	-0.1161	-0.891102	0.517102	1.5708	0	0	0.171251	-0.219207	0.224918	0.612677	1.5708	0	0
65.1	-3.01636	1.37093	-1.54358	0.852888	-0.557344	1.08491	-0.200295	-0.0253983	-0.0440646	0.231743	-0.329448	0	0	-0.251508	-0.0545467	-0.147469	0.306791	-0.174276	0	0	-0.462842	-0.00945722	0.168801	0.158275	-0.113572	-0.856526	0.530248	1.5708	0	0	0.151283	-0.226684	0.207972	0.647776	1.5708	0	0
65.11	-3.01624	1.3819	-1.54382	0.852781	-0.556475	1.08423	-0.188274	-0.0256924	-0.0422788	0.233359	-0.328556	0	0	-0.239608	-0.0540521	-0.145055	0.307945	-0.173855	0	0	-0.435812	-0.0125936	0.161362	0.14927	-0.110624	-0.817071	0.547141	1.5708	0	0	0.128689	-0.234552	0.187393	0.687318	1.5708	0	0
65.12	-3.01454	1.39345	-1.54569	0.852644	-0.555552	1.08353	-0.17573	-0.0263205	-0.0408304	0.235074	-0.327421	0	0	-0.227542	-0.0529326	-0.141263	0.3081	-0.173637	0	0	-0.408083	-0.0170426	0.151223	0.139234	-0.108082	-0.768487	0.567701	1.5708	0	0	0.101587	-0.242516	0.159429	0.733757	1.5708	0	0
65.13	-3.00836	1.40622	-1.55192	0.85242	-0.554546	1.08263	-0.161191	-0.0281456	-0.0407399	0.239023	-0.324902	0	0	-0.214054	-0.0510413	-0.138034	0.308779	-0.173356	0	0	-0.378313	-0.0232844	0.140061	0.12729	-0.105739	-0.71782	0.592622	1.56781	0	0	0.0716058	-0.250486	0.12893	0.785396	1.5708	0	0
65.14	-3.00353	1.41893	-1.55665	0.852127	-0.553582	1.08183	-0.147425	-0.0294198	-0.0393932	0.240715	-0.323721	0	0	-0.200435	-0.0495065	-0.135129	0.309517	-0.173396	0	0	-0.349085	-0.0302477	0.128157	0.113427	-0.104561	-0.663149	0.62348	1.55573	0	0	0.0396926	-0.257867	0.0963426	0.842006	1.5708	0	0
65.15	-2.99836	1.43143	-1.56148	0.851782	-0.552681	1.08105	-0.133931	-0.0306041	-0.0385255	0.242408	-0.322792	0	0	-0.186723	-0.0481794	-0.132798	0.310708	-0.173513	0	0	-0.320162	-0.0382132	0.116949	0.0970473	-0.104782	-0.607882	0.660275	1.53597	0	0	0.00806013	-0.264315	0.0646741	0.901101	1.5708	0	0
65.16	-2.99304	1.44334	-1.56649	0.851448	-0.551814	1.08033	-0.121388	-0.0314455	-0.0375379	0.243627	-0.321841	0	0	-0.173841	-0.0468633	-0.129985	0.311444	-0.173767	0	0	-0.290957	-0.0469309	0.108839	0.0767792	-0.106961	-0.555558	0.703281	1.51023	0	0	-0.0207578	-0.270139	0.0381321	0.95974	1.5708	0	0
65.17	-2.98651	1.4551	-1.57282	0.851111	-0.550965	1.07964	-0.109278	-0.0323245	-0.0358397	0.243904	-0.321736	0	0	-0.161186	-0.0454478	-0.126987	0.311991	-0.17432	0	0	-0.26096	-0.056055	0.105413	0.0517212	-0.110839	-0.511253	0.753625	1.48506	0	0	-0.0450206	-0.275845	0.0195777	1.01603	1.5708	0	0
65.18	-2.98434	1.46538	-1.57495	0.850739	-0.550245	1.07916	-0.0989241	-0.0325946	-0.0336913	0.243176	-0.322726	0	0	-0.150048	-0.0446132	-0.124384	0.312556	-0.174939	0	0	-0.232847	-0.0644851	0.106901	0.0229354	-0.11763	-0.472279	0.810362	1.45624	0	0	-0.0636635	-0.280929	0.00809358	1.06979	1.5708	0	0
65.19	-2.97761	1.47541	-1.58202	0.850425	-0.549548	1.07861	-0.0879368	-0.0336231	-0.0320497	0.244403	-0.323012	0	0	-0.139287	-0.0432843	-0.121937	0.312901	-0.175611	0	0	-0.210699	-0.0715915	0.105424	-0.00446699	-0.124405	-0.440262	0.876927	1.42502	0	0	-0.0839587	-0.284739	-0.00782326	1.12849	1.5708	0	0
65.2	-2.97214	1.48409	-1.58729	0.850033	-0.548998	1.07816	-0.0788563	-0.0343	-0.0311059	0.244684	-0.323334	0	0	-0.129613	-0.0422746	-0.11918	0.313688	-0.176092	0	0	-0.19253	-0.078135	0.105209	-0.0326959	-0.132168	-0.415431	0.948968	1.39245	0	0	-0.101271	-0.287828	-0.0214673	1.18792	1.5708	0	0
65.21	-2.9663	1.49059	-1.59137	0.849489	-0.54868	1.07786	-0.072509	-0.0348636	-0.0321789	0.244323	-0.323874	0	0	-0.121541	-0.0414244	-0.114747	0.315281	-0.176137	0	0	-0.178914	-0.08393	0.1062	-0.0615493	-0.141479	-0.395535	1.02444	1.35861	0	0	-0.113449	-0.29072	-0.02988	1.24593	1.5708	0	0
65.22	-2.95721	1.49676	-1.59941	0.848984	-0.548288	1.07753	-0.0664892	-0.0356549	-0.0320862	0.244164	-0.324048	0	0	-0.114118	-0.0403625	-0.111806	0.31659	-0.176308	0	0	-0.166758	-0.0894058	0.109984	-0.0911373	-0.152367	-0.381865	1.10072	1.32313	0	0	-0.121039	-0.293715	-0.0328204	1.30045	1.5708	0	0
65.23	-2.94957	1.50182	-1.60706	0.848588	-0.547903	1.07727	-0.061391	-0.0363643	-0.0305165	0.243982	-0.324406	0	0	-0.108278	-0.0394039	-0.110179	0.31736	-0.17661	0	0	-0.159524	-0.094801	0.112296	-0.117426	-0.164732	-0.370489	1.17643	1.28639	0	0	-0.128399	-0.296057	-0.0379719	1.35642	1.5708	0	0
65.24	-2.94627	1.50623	-1.61069	0.848215	-0.547581	1.07704	-0.0569042	-0.0367787	-0.0292419	0.243895	-0.324792	0	0	-0.103214	-0.0387689	-0.108855	0.317961	-0.17704	0	0	-0.152732	-0.0997797	0.115128	-0.140873	-0.178314	-0.361594	1.2463	1.25609	0	0	-0.132684	-0.298322	-0.0405409	1.40825	1.5708	0	0
65.25	-2.94643	1.50966	-1.6108	0.847835	-0.547323	1.07686	-0.0532484	-0.0370911	-0.028818	0.243964	-0.32528	0	0	-0.0989092	-0.0384418	-0.107876	0.31937	-0.176942	0	0	-0.147865	-0.104297	0.119317	-0.163193	-0.192822	-0.356281	1.31334	1.22513	0	0	-0.132763	-0.300394	-0.0393956	1.45619	1.5708	0	0
65.26	-2.94928	1.51277	-1.60825	0.847452	-0.547043	1.07669	-0.0501509	-0.0372201	-0.028918	0.243904	-0.325712	0	0	-0.0949651	-0.0383557	-0.10737	0.320955	-0.176651	0	0	-0.143429	-0.108392	0.124356	-0.18372	-0.208218	-0.353145	1.37507	1.19315	0	0	-0.129601	-0.302953	-0.0342246	1.49989	1.5708	0	0
65.27	-3.06089	1.49386	-1.55446	0.851176	-0.55248	1.0784	-0.0403249	-0.0329627	0.0601901	0.283115	-0.309662	0	0	-0.120145	-0.0384099	-0.172324	0.316794	-0.177743	0	0	-0.183002	-0.105365	0.187801	-0.190467	-0.245402	-0.367228	1.45392	1.02932	0	0	-0.0998847	-0.283833	-0.0216157	1.54104	1.5708	0	0
65.28	-3.07132	1.49703	-1.54484	0.850828	-0.552209	1.07819	-0.0370364	-0.0325687	0.0608689	0.283086	-0.310117	0	0	-0.116268	-0.0387826	-0.172506	0.318262	-0.177432	0	0	-0.177605	-0.108715	0.188267	-0.201123	-0.261994	-0.361158	1.5003	1.00996	0	0	-0.0971765	-0.286332	-0.0168598	1.57985	1.5708	0	0
65.29	-3.08017	1.49884	-1.53668	0.85047	-0.552027	1.07806	-0.0351347	-0.0324452	0.0608683	0.283049	-0.310607	0	0	-0.113641	-0.0390479	-0.172794	0.320179	-0.176555	0	0	-0.175726	-0.111513	0.190178	-0.212018	-0.279348	-0.358177	1.54734	0.987356	0	0	-0.0902199	-0.288885	-0.0076081	1.61498	1.5708	0	0
65.3	-3.08599	1.50011	-1.53145	0.850106	-0.551891	1.07796	-0.0338391	-0.032636	0.0605823	0.282885	-0.311065	0	0	-0.111724	-0.0390845	-0.172823	0.321663	-0.175872	0	0	-0.174137	-0.114196	0.192205	-0.220745	-0.296329	-0.356369	1.58935	0.96418	0	0	-0.0807502	-0.291555	0.00509116	1.64549	1.5708	0	0
65.31	-3.09389	1.5042	-1.52376	0.849717	-0.551579	1.07775	-0.0298522	-0.0326329	0.0604895	0.282259	-0.311939	0	0	-0.106857	-0.0390191	-0.171485	0.322912	-0.175423	0	0	-0.169588	-0.122468	0.198183	-0.230895	-0.314511	-0.355532	1.6243	0.931843	0	0	-0.0663177	-0.295363	0.0246227	1.67439	1.5708	0	0
65.32	-3.09588	1.47708	-1.47083	0.845586	-0.55598	1.08025	-0.0710909	-0.0279534	-0.00222714	0.261944	-0.323107	0	0	-0.11566	-0.0448998	-0.0969226	0.344587	-0.164002	0	0	-0.22111	-0.112875	0.146432	-0.21731	-0.318263	-0.365617	1.67185	0.886608	0	0	-0.0337969	-0.30566	0.0393743	1.70316	1.5708	0	0
65.33	-3.10487	1.50206	-1.51579	0.849121	-0.551562	1.07783	-0.0320954	-0.0328274	0.0617858	0.281414	-0.313806	0	0	-0.108325	-0.0390636	-0.174509	0.325839	-0.173483	0	0	-0.171141	-0.119654	0.200922	-0.233842	-0.339522	-0.361624	1.68908	0.851791	0	0	-0.0378845	-0.301746	0.0609681	1.71093	1.5708	0	0
65.34	-3.11369	1.50291	-1.50829	0.848761	-0.551518	1.07775	-0.0308758	-0.0329042	0.0623821	0.281831	-0.312899	0	0	-0.106924	-0.0391646	-0.175191	0.327238	-0.172945	0	0	-0.167921	-0.121093	0.201452	-0.229311	-0.35162	-0.358298	1.7083	0.835495	0	0	-0.0218208	-0.304653	0.0816271	1.72404	1.5708	0	0
65.35	-3.12272	1.50263	-1.49939	0.848303	-0.551599	1.07774	-0.0310014	-0.0328559	0.0612879	0.281823	-0.313179	0	0	-0.106178	-0.0395297	-0.174386	0.329275	-0.171791	0	0	-0.167083	-0.122417	0.201017	-0.221463	-0.361883	-0.354473	1.72316	0.818012	0	0	-0.00308991	-0.307872	0.104783	1.7342	1.5708	0	0
65.36	-3.13239	1.50225	-1.48861	0.847726	-0.551709	1.07775	-0.0318386	-0.0327657	0.0591833	0.280504	-0.314241	0	0	-0.105148	-0.039972	-0.171682	0.331513	-0.170621	0	0	-0.166148	-0.123787	0.198618	-0.208746	-0.368887	-0.349008	1.73099	0.802211	0	0	0.0165091	-0.310977	0.128944	1.74098	1.5708	0	0
65.37	-3.13934	1.50347	-1.48403	0.847485	-0.551529	1.07763	-0.0302546	-0.0329301	0.0612267	0.28041	-0.314801	0	0	-0.103757	-0.0398749	-0.173851	0.332176	-0.170351	0	0	-0.161604	-0.125714	0.198777	-0.193406	-0.37384	-0.34108	1.7326	0.788869	0	0	0.0350872	-0.313631	0.153902	1.74396	1.5708	0	0
65.38	-3.0263	1.52533	-1.54554	0.843482	-0.545843	1.07566	-0.0352511	-0.0394106	-0.0219095	0.245488	-0.326019	0	0	-0.0761391	-0.0372368	-0.115144	0.337208	-0.169438	0	0	-0.121628	-0.136539	0.150784	-0.196452	-0.350285	-0.333475	1.72309	0.775164	0	0	0.0398775	-0.33866	0.184502	1.74426	1.5708	0	0
65.39	-3.02751	1.52709	-1.54634	0.843137	-0.545665	1.07554	-0.0331591	-0.0400086	-0.0206799	0.245567	-0.327833	0	0	-0.0740826	-0.0365925	-0.116351	0.338099	-0.169256	0	0	-0.118726	-0.1385	0.143637	-0.171613	-0.351229	-0.317957	1.71604	0.770097	0	0	0.0525703	-0.340418	0.202758	1.74741	1.5708	0	0
